<svg width="72" height="72" viewBox="0 0 72 72" fill="none" xmlns="http://www.w3.org/2000/svg">
<path d="M0 11.7C0 8.59697 1.23267 5.62103 3.42685 3.42685C5.62103 1.23267 8.59697 0 11.7 0H49.5C52.603 0 55.579 1.23267 57.7732 3.42685C59.9673 5.62103 61.2 8.59697 61.2 11.7V28.8252C60.9003 28.8081 60.6002 28.7997 60.3 28.8H55.8V11.7C55.8 10.0291 55.1362 8.42671 53.9548 7.24523C52.7733 6.06375 51.1709 5.4 49.5 5.4H11.7C10.0291 5.4 8.42671 6.06375 7.24523 7.24523C6.06375 8.42671 5.4 10.0291 5.4 11.7V53.1C5.4 56.5776 8.2224 59.4 11.7 59.4H14.4V60.3C14.4 61.866 14.634 63.378 15.0732 64.8H11.7C8.59697 64.8 5.62103 63.5673 3.42685 61.3731C1.23267 59.179 0 56.203 0 53.1V11.7ZM17.1 10.8C16.3839 10.8 15.6972 11.0845 15.1908 11.5908C14.6845 12.0972 14.4 12.7839 14.4 13.5C14.4 14.2161 14.6845 14.9028 15.1908 15.4092C15.6972 15.9155 16.3839 16.2 17.1 16.2H44.1C44.8161 16.2 45.5028 15.9155 46.0092 15.4092C46.5155 14.9028 46.8 14.2161 46.8 13.5C46.8 12.7839 46.5155 12.0972 46.0092 11.5908C45.5028 11.0845 44.8161 10.8 44.1 10.8H17.1ZM21.6 22.5C21.6 21.7839 21.8845 21.0972 22.3908 20.5908C22.8972 20.0845 23.5839 19.8 24.3 19.8H44.1C44.8161 19.8 45.5028 20.0845 46.0092 20.5908C46.5155 21.0972 46.8 21.7839 46.8 22.5C46.8 23.2161 46.5155 23.9028 46.0092 24.4092C45.5028 24.9155 44.8161 25.2 44.1 25.2H24.3C23.5839 25.2 22.8972 24.9155 22.3908 24.4092C21.8845 23.9028 21.6 23.2161 21.6 22.5ZM18 44.1C18 40.997 19.2327 38.021 21.4268 35.8269C23.621 33.6327 26.597 32.4 29.7 32.4H60.3C61.8365 32.4 63.3579 32.7026 64.7774 33.2906C66.1969 33.8786 67.4867 34.7404 68.5732 35.8269C69.6596 36.9133 70.5214 38.2031 71.1094 39.6226C71.6974 41.0421 72 42.5635 72 44.1V60.3C72 61.8365 71.6974 63.3579 71.1094 64.7774C70.5214 66.1969 69.6596 67.4867 68.5732 68.5732C67.4867 69.6596 66.1969 70.5214 64.7774 71.1094C63.3579 71.6974 61.8365 72 60.3 72H29.7C28.1635 72 26.6421 71.6974 25.2226 71.1094C23.8031 70.5214 22.5133 69.6596 21.4268 68.5732C20.3404 67.4867 19.4786 66.1969 18.8906 64.7774C18.3026 63.3579 18 61.8365 18 60.3V44.1ZM29.7 37.8C27.8856 37.8 26.2476 38.5668 25.0992 39.798L45 52.5888L64.9008 39.798C64.3123 39.1668 63.6 38.6636 62.8085 38.3199C62.0169 37.9761 61.163 37.7992 60.3 37.8H29.7ZM23.4 60.3C23.4 63.7776 26.2224 66.6 29.7 66.6H60.3C61.9709 66.6 63.5733 65.9362 64.7548 64.7548C65.9362 63.5733 66.6 61.9709 66.6 60.3V45.1224L46.4616 58.0716C46.0258 58.3522 45.5184 58.5014 45 58.5014C44.4816 58.5014 43.9742 58.3522 43.5384 58.0716L23.4 45.1224V60.3Z" fill="white"/>
</svg>
