<svg width="104" height="58" viewBox="0 0 104 58" fill="none" xmlns="http://www.w3.org/2000/svg">
<path fill-rule="evenodd" clip-rule="evenodd" d="M30.5441 15.9279C30.5441 7.16757 37.6274 0 46.2847 0C54.942 0 62.0252 7.16757 62.0252 15.9279C62.0211 18.4358 61.4324 20.9073 60.3069 23.1416C59.1814 25.376 57.551 27.3102 55.548 28.7871C59.381 30.694 62.5537 33.7305 64.6487 37.497C66.7436 33.7305 69.9163 30.694 73.7493 28.7871C69.8352 25.8829 67.2721 21.1948 67.2721 15.9279C67.2721 7.16757 74.3553 0 83.0126 0C91.6699 0 98.7532 7.16757 98.7532 15.9279C98.749 18.4358 98.1603 20.9073 97.0348 23.1416C95.9094 25.376 94.2789 27.3102 92.2759 28.7871C99.1939 32.2594 104 39.4561 104 47.7838H98.7532C98.7532 38.9597 91.7329 31.8559 83.0126 31.8559C74.2924 31.8559 67.2721 38.9597 67.2721 47.7838H62.0252C62.0252 38.9597 55.0049 31.8559 46.2847 31.8559C41.0395 31.8559 36.4094 34.426 33.5521 38.3947C33.6691 39.1971 33.7297 40.0172 33.7297 40.8509C33.7297 49.237 27.6401 56.2078 19.6757 57.6216V45.441H23.4239L24.173 40.7568H19.6757V37.4779C19.6757 36.1653 20.1437 35.1351 22.2054 35.1351H24.3599V30.8248C23.1428 30.6378 21.8302 30.4509 20.6131 30.4509C16.7707 30.4509 14.0541 32.7923 14.0541 37.0085V40.7568H9.83784V45.441H14.0541V57.6216C6.08962 56.2078 0 49.2356 0 40.8509C0 31.5232 7.58919 23.8919 16.8649 23.8919C23.1938 23.8919 28.7376 27.4447 31.6212 32.6651C33.2019 31.1034 35.0236 29.7898 37.0214 28.7871C33.1072 25.8829 30.5441 21.1948 30.5441 15.9279ZM56.7784 15.9279C56.7784 10.0266 52.1166 5.30931 46.2847 5.30931C40.4528 5.30931 35.791 10.0266 35.791 15.9279C35.791 21.8292 40.4528 26.5465 46.2847 26.5465C52.1166 26.5465 56.7784 21.8292 56.7784 15.9279ZM93.5063 15.9279C93.5063 10.0266 88.8445 5.30931 83.0126 5.30931C77.1807 5.30931 72.5189 10.0266 72.5189 15.9279C72.5189 21.8292 77.1807 26.5465 83.0126 26.5465C88.8445 26.5465 93.5063 21.8292 93.5063 15.9279Z" fill="white"/>
</svg>
