<svg width="90" height="71" viewBox="0 0 90 71" fill="none" xmlns="http://www.w3.org/2000/svg">
<path d="M67.5941 37.5156L64.8474 46.7765C64.6969 47.2849 64.3771 47.7389 63.9444 48.0476C63.5117 48.3744 62.9661 48.5378 62.4206 48.5378H32.245C31.6994 48.5378 31.1727 48.3744 30.7212 48.0476C30.2885 47.7207 29.9686 47.2849 29.8181 46.7765L22.4059 21.7721H51.4716C51.2458 20.61 51.1329 19.3933 51.1329 18.1586C51.1329 17.7409 51.1518 17.3233 51.1706 16.9056H20.9574L18.3988 8.26215C18.0978 7.24527 17.4582 6.3555 16.574 5.71995C15.7086 5.0844 14.6551 4.73939 13.5452 4.73939H8.25878C7.58152 4.73939 6.94189 4.99361 6.47157 5.44757C6.00126 5.90153 5.73788 6.51893 5.73788 7.17263C5.73788 7.82634 6.00126 8.44373 6.47157 8.8977C6.94189 9.35166 7.58152 9.60588 8.25878 9.60588H13.5452L16.6304 19.9744V20.0289L24.9645 48.1202C25.416 49.6455 26.3754 50.9893 27.6923 51.9335C29.0092 52.8959 30.6083 53.4043 32.245 53.4043H62.4394C64.0761 53.4043 65.6752 52.8777 66.9921 51.9335C68.309 50.9711 69.2684 49.6455 69.7199 48.1202L72.7488 37.8606C72.3537 37.8788 71.9586 37.8969 71.5636 37.8969C70.209 37.8788 68.8733 37.7517 67.5941 37.5156Z" fill="white"/>
<path d="M63.7187 58.2708C62.7216 58.2708 61.7433 58.5614 60.9156 59.088C60.0878 59.6146 59.4482 60.3772 59.0531 61.267C58.6768 62.1568 58.564 63.1373 58.7709 64.0816C58.959 65.0258 59.4482 65.8974 60.1442 66.5693C60.8403 67.2412 61.7433 67.7133 62.7216 67.8949C63.6998 68.0765 64.7157 67.9857 65.6375 67.6225C66.5594 67.2593 67.3495 66.6238 67.8951 65.8248C68.4406 65.0258 68.7416 64.0816 68.7416 63.1192C68.7416 61.8299 68.2149 60.5951 67.2554 59.6872C66.3336 58.7793 65.0544 58.2708 63.7187 58.2708Z" fill="white"/>
<path d="M30.9469 58.2708C29.9498 58.2708 28.9716 58.5614 28.1438 59.088C27.3161 59.6146 26.6764 60.3772 26.2814 61.267C25.9051 62.1568 25.7922 63.1373 25.9992 64.0816C26.1873 65.0258 26.6764 65.8974 27.3725 66.5693C28.0686 67.2412 28.9716 67.7133 29.9498 67.8949C30.9281 68.0765 31.944 67.9857 32.8658 67.6225C33.7876 67.2593 34.5778 66.6238 35.1233 65.8248C35.6689 65.0258 35.9699 64.0816 35.9699 63.1192C35.9699 61.8299 35.4431 60.5951 34.5025 59.6872C33.5619 58.7793 32.2826 58.2708 30.9469 58.2708Z" fill="white"/>
<path d="M86.0681 11.5125C84.676 8.6798 82.4185 6.31918 79.5966 4.75754C76.7747 3.19591 73.5389 2.46957 70.3031 2.72379C66.1455 3.03248 62.2889 4.90281 59.5234 7.91714V4.14015L59.5046 3.94041C59.467 3.63171 59.3165 3.34118 59.0719 3.10512C58.8462 2.88721 58.5452 2.74194 58.2065 2.68747L57.9996 2.66931L57.7926 2.68747C57.4728 2.72379 57.1718 2.86905 56.9273 3.10512C56.7015 3.32302 56.551 3.61356 56.4946 3.94041L56.4758 4.14015V11.8757L56.4946 12.0754C56.5322 12.3841 56.6827 12.6747 56.9273 12.9107C57.153 13.1286 57.454 13.2739 57.7926 13.3284L57.9996 13.3465H65.0167L65.2237 13.3284C65.5811 13.2921 65.9197 13.1105 66.1643 12.8381C66.4089 12.5657 66.5406 12.2389 66.5406 11.8757C66.5406 11.5307 66.4089 11.1857 66.1643 10.9133C65.9197 10.6409 65.5999 10.4775 65.2237 10.423L65.0167 10.4049H61.2542L61.6681 9.91458C63.681 7.66292 66.4465 6.17391 69.4753 5.70179C72.5042 5.22967 75.6271 5.81074 78.2609 7.35422C80.8947 8.87954 82.8888 11.2583 83.8859 14.0729C84.8829 16.8875 84.8077 19.9381 83.6977 22.7164C82.569 25.4765 80.4808 27.7826 77.7717 29.199C75.0627 30.6153 71.9398 31.0693 68.911 30.4701C65.8821 29.8708 63.1919 28.2729 61.2918 25.9304C59.3917 23.6061 58.3946 20.6826 58.5075 17.7228C58.5263 17.3414 58.3758 16.9601 58.0936 16.6877C57.8115 16.4153 57.4352 16.2519 57.0401 16.2338C56.6451 16.2156 56.25 16.3609 55.9678 16.6332C55.6856 16.9056 55.4975 17.2688 55.4975 17.6501C55.3846 20.7916 56.2688 23.8785 58.0372 26.5115C59.8056 29.1445 62.3453 31.2146 65.3365 32.4312C68.3278 33.6478 71.6388 33.9565 74.8181 33.321C77.9975 32.6854 80.9135 31.1238 83.1522 28.854C85.3909 26.5841 86.8771 23.7151 87.385 20.61C87.893 17.5049 87.4603 14.3453 86.0681 11.5125Z" fill="white"/>
<path d="M72.5606 11.676C72.523 11.3673 72.3725 11.0767 72.1279 10.8407C71.9022 10.6228 71.6012 10.4775 71.2625 10.423L71.0556 10.4049L70.8487 10.423C70.5288 10.4593 70.2278 10.6046 69.9833 10.8407C69.7575 11.0586 69.607 11.3491 69.5506 11.676L69.5318 11.8757V19.6113L69.5506 19.811C69.5882 20.1197 69.7387 20.4102 69.9833 20.6463C70.2278 20.8824 70.51 21.0095 70.8487 21.0639L71.0556 21.0821H76.0786L76.2855 21.0639C76.643 21.0095 76.9816 20.846 77.2074 20.5737C77.4331 20.3013 77.5836 19.9744 77.5836 19.6113C77.5836 19.2481 77.4519 18.9212 77.2074 18.6488C76.9628 18.3765 76.643 18.213 76.2855 18.1586L76.0786 18.1404H72.5606V11.8757V11.676Z" fill="white"/>
</svg>
