<svg width="104" height="56" viewBox="0 0 104 56" fill="none" xmlns="http://www.w3.org/2000/svg">
<path fill-rule="evenodd" clip-rule="evenodd" d="M30.5441 16.3333C30.5441 7.57296 37.6274 0.405396 46.2847 0.405396C54.942 0.405396 62.0252 7.57296 62.0252 16.3333C62.0211 18.8412 61.4324 21.3127 60.3069 23.547C59.1814 25.7814 57.551 27.7156 55.548 29.1925C59.381 31.0994 62.5537 34.1359 64.6487 37.9024C66.7436 34.1359 69.9163 31.0994 73.7493 29.1925C69.8352 26.2883 67.2721 21.6002 67.2721 16.3333C67.2721 7.57296 74.3553 0.405396 83.0126 0.405396C91.6699 0.405396 98.7532 7.57296 98.7532 16.3333C98.749 18.8412 98.1603 21.3127 97.0348 23.547C95.9094 25.7814 94.2789 27.7156 92.2759 29.1925C99.1939 32.6648 104 39.8615 104 48.1892H98.7532C98.7532 39.3651 91.7329 32.2612 83.0126 32.2612C74.2924 32.2612 67.2721 39.3651 67.2721 48.1892H62.0252C62.0252 39.3651 55.0049 32.2612 46.2847 32.2612C41.1461 32.2612 36.5978 34.728 33.7285 38.5599C33.6166 47.7733 26.1047 55.2162 16.8649 55.2162C7.55546 55.2162 0 47.6607 0 38.3513C0 29.0419 7.55546 21.4865 16.8649 21.4865C24.2221 21.4865 30.4838 26.2054 32.7865 32.7797C33.8357 31.3417 35.163 30.1252 37.0214 29.1925C33.1072 26.2883 30.5441 21.6002 30.5441 16.3333ZM56.7784 16.3333C56.7784 10.432 52.1166 5.7147 46.2847 5.7147C40.4528 5.7147 35.791 10.432 35.791 16.3333C35.791 22.2346 40.4528 26.9519 46.2847 26.9519C52.1166 26.9519 56.7784 22.2346 56.7784 16.3333ZM93.5063 16.3333C93.5063 10.432 88.8445 5.7147 83.0126 5.7147C77.1807 5.7147 72.5189 10.432 72.5189 16.3333C72.5189 22.2346 77.1807 26.9519 83.0126 26.9519C88.8445 26.9519 93.5063 22.2346 93.5063 16.3333ZM21.8569 48.5377C24.6902 48.5377 26.9838 46.2441 26.9838 43.4108V33.3593C26.9838 30.526 24.6902 28.2324 21.8569 28.2324H11.8054C8.97211 28.2324 6.67849 30.526 6.67849 33.3593V43.4108C6.67849 46.2441 8.97211 48.5377 11.8054 48.5377H21.8569ZM21.9243 30.4585H11.8054C10.1864 30.4585 8.90464 31.7403 8.90464 33.3593V43.4108C8.90464 45.0298 10.1864 46.3115 11.8054 46.3115H21.8569C23.4759 46.3115 24.7576 45.0298 24.7576 43.4108V33.3593C24.7576 31.8077 23.4759 30.4585 21.9243 30.4585ZM16.8649 43.6131C13.9641 43.6131 11.6705 41.2521 11.6705 38.4188C11.6705 35.5855 14.0316 33.2244 16.8649 33.2244C19.6982 33.2244 22.0592 35.5855 22.0592 38.4188C22.0592 41.2521 19.6982 43.6131 16.8649 43.6131ZM22.2616 34.2363C21.587 34.2363 21.0473 33.6966 21.0473 33.022C21.0473 32.3474 21.587 31.8077 22.2616 31.8077C22.9362 31.8077 23.4759 32.3474 23.4759 33.022C23.4759 33.6966 22.9362 34.2363 22.2616 34.2363ZM16.8649 35.383C15.2458 35.383 13.8292 36.7322 13.8292 38.4187C13.8292 40.1052 15.1784 41.4544 16.8649 41.4544C18.5514 41.4544 19.9005 40.1052 19.9005 38.4187C19.9005 36.7322 18.4839 35.383 16.8649 35.383Z" fill="white"/>
</svg>
