<svg width="58" height="74" viewBox="0 0 58 74" fill="none" xmlns="http://www.w3.org/2000/svg">
<path d="M29.7927 14.3474C29.7251 14.2068 29.6168 14.0876 29.4805 14.0041C29.3443 13.9205 29.1859 13.8761 29.0242 13.8761C28.8624 13.8761 28.704 13.9205 28.5678 14.0041C28.4316 14.0876 28.3232 14.2068 28.2557 14.3474L24.795 21.53C24.7342 21.6551 24.641 21.7633 24.5243 21.8442C24.4076 21.9252 24.2711 21.9762 24.128 21.9925L15.9162 22.9268C15.756 22.9454 15.6048 23.0073 15.4803 23.1054C15.3558 23.2035 15.2631 23.3337 15.2134 23.4805C15.1636 23.6273 15.1587 23.7847 15.1993 23.934C15.2399 24.0834 15.3243 24.2185 15.4425 24.3235L21.5132 29.6932C21.6198 29.7873 21.6994 29.906 21.7443 30.038C21.7892 30.1701 21.7978 30.3109 21.7693 30.4471L20.155 38.2032C20.1234 38.3549 20.1378 38.512 20.1966 38.6561C20.2554 38.8001 20.3561 38.925 20.4868 39.016C20.6175 39.107 20.7727 39.1603 20.934 39.1695C21.0954 39.1787 21.2561 39.1435 21.3972 39.0681L28.6133 35.2062C28.739 35.1394 28.8804 35.1043 29.0242 35.1043C29.1679 35.1043 29.3093 35.1394 29.435 35.2062L36.6512 39.0681C37.2795 39.4057 38.0335 38.8831 37.8933 38.2032L36.2838 30.4471C36.2554 30.3109 36.264 30.1701 36.3089 30.038C36.3537 29.906 36.4333 29.7873 36.54 29.6932L42.6058 24.3235C42.724 24.2185 42.8084 24.0834 42.849 23.934C42.8896 23.7847 42.8848 23.6273 42.835 23.4805C42.7852 23.3337 42.6926 23.2035 42.568 23.1054C42.4435 23.0073 42.2923 22.9454 42.1322 22.9268L33.9252 21.9925C33.7812 21.977 33.6437 21.9263 33.5261 21.8453C33.4084 21.7643 33.3145 21.6558 33.2533 21.53L29.7927 14.3474ZM58 27.7507C58.0045 31.6556 57.1455 35.5173 55.4794 39.082C53.8134 42.6466 51.378 45.8337 48.3333 48.4337V71.6882C48.3332 72.0932 48.2219 72.491 48.0106 72.8419C47.7994 73.1928 47.4955 73.4845 47.1295 73.6877C46.7634 73.8909 46.348 73.9986 45.9248 74C45.5016 74.0014 45.0855 73.8964 44.718 73.6955L29 65.1022L13.282 73.6955C12.9145 73.8964 12.4984 74.0014 12.0752 74C11.652 73.9986 11.2366 73.8909 10.8705 73.6877C10.5045 73.4845 10.2006 73.1928 9.98934 72.8419C9.77807 72.491 9.66681 72.0932 9.66667 71.6882V48.4337C6.06108 45.3478 3.31948 41.4478 1.69153 37.0889C0.0635808 32.7299 -0.399006 28.0506 0.345893 23.4769C1.09079 18.9032 3.01951 14.5805 5.95643 10.9023C8.89334 7.22413 12.7451 4.30741 17.1611 2.41771C21.5771 0.528017 26.4169 -0.274617 31.2398 0.0828995C36.0628 0.440416 40.7157 1.94672 44.7748 4.46466C48.8339 6.9826 52.1703 10.4322 54.4802 14.4993C56.7901 18.5664 58.0001 23.1218 58 27.7507ZM29 55.5007C23.909 55.5078 18.9066 54.2265 14.5 51.7868V67.7061L27.8013 60.431C28.1664 60.2314 28.5796 60.1265 29 60.1265C29.4204 60.1265 29.8336 60.2314 30.1987 60.431L43.5 67.7107V51.7915C39.093 54.2298 34.0906 55.5094 29 55.5007ZM29 50.8757C35.4094 50.8757 41.5563 48.4393 46.0884 44.1025C50.6205 39.7658 53.1667 33.8838 53.1667 27.7507C53.1667 21.6175 50.6205 15.7356 46.0884 11.3988C41.5563 7.06202 35.4094 4.62564 29 4.62564C22.5906 4.62564 16.4437 7.06202 11.9116 11.3988C7.37946 15.7356 4.83334 21.6175 4.83334 27.7507C4.83334 33.8838 7.37946 39.7658 11.9116 44.1025C16.4437 48.4393 22.5906 50.8757 29 50.8757Z" fill="white"/>
</svg>
